<svg width="185" height="105" viewBox="0 0 185 105" fill="none" xmlns="http://www.w3.org/2000/svg">
<path d="M92.8177 4.72817C93.5227 4.02316 95.83 2 94.5228 2C91.2178 2 93.3543 5.52946 95.5458 6.01647C98.3163 6.63214 98.0791 2.747 96.9099 2.68204C94.5705 2.55207 96.9099 1.71014 96.9099 4.04613" stroke="#F8AE65" stroke-width="3" stroke-linecap="round"/>
<path d="M45.7567 33.3739C48.2302 33.3739 48.3178 33.3598 49.1669 31.0247C49.8128 29.2486 50.3208 27.9176 47.8028 27.9176C44.3883 27.9176 43.9414 32.0099 47.8028 32.0099" stroke="#F8AE65" stroke-width="3" stroke-linecap="round"/>
<path d="M79.8589 102.942C77.3658 103.254 85.5747 103.183 87.2098 101.275C89.2088 98.943 83.8823 98.85 82.2461 98.85C79.5563 98.85 83.5933 100.934 83.648 101.427C83.6726 101.648 80.2136 101.578 79.8589 101.578" stroke="#F8AE65" stroke-width="3" stroke-linecap="round"/>
<path d="M131.012 74.9785C130.145 74.9785 125.831 75.3852 126.92 74.2965C127.951 73.2657 127.602 78.1454 127.602 79.0708" stroke="#F8AE65" stroke-width="3" stroke-linecap="round"/>
<path d="M86.6793 57.9275C87.2984 57.6032 92.0509 54.817 92.0978 54.9341C92.6381 56.285 90.1411 55.8814 89.5591 55.8814C88.4225 55.8814 84.7167 56.6051 87.3614 57.9275" stroke="#F8AE65" stroke-width="3" stroke-linecap="round"/>
<path d="M5.51615 100.896C5.24727 98.7451 -1.27797 92.0296 4.15207 92.0296C7.86857 92.0296 7.87072 98.601 4.15207 96.1219" stroke="#F8AE65" stroke-width="3" stroke-linecap="round"/>
<path d="M2.78809 94.7578H4.83421" stroke="#F8AE65" stroke-width="3" stroke-linecap="round"/>
<path d="M141.243 98.8501C140.477 97.1275 137.832 98.0922 138.173 98.0922C139.44 98.0922 137.59 96.2684 137.15 96.1219" stroke="#F8AE65" stroke-width="3" stroke-linecap="round"/>
<path d="M142.607 41.5585C141.896 40.99 144.235 39.0298 143.137 38.8303C141.521 38.5365 141.093 39.3396 141.281 40.8385C141.647 43.768 145.906 41.4666 147.381 40.8764" stroke="#F8AE65" stroke-width="3" stroke-linecap="round"/>
<path d="M177.391 98.85C178.678 98.1052 182.554 93.7628 178.528 95.2125C177.287 95.659 179.579 98.7949 180.195 99.191C182.234 100.502 183.024 98.7319 183.416 96.5765C183.649 95.2957 180.671 97.2015 182.847 93.3937" stroke="#F8AE65" stroke-width="3" stroke-linecap="round"/>
</svg>
